<svg width="322" height="198" viewBox="0 0 322 198" fill="none" xmlns="http://www.w3.org/2000/svg">
<path d="M65.8342 118.777L6.70724 59.6271C6.07733 58.997 5 59.4431 5 60.3341V192C5 192.552 5.44772 193 6 193H23.1773C23.5343 193 23.8642 192.81 24.0429 192.501L65.9926 119.984C66.2193 119.592 66.1544 119.097 65.8342 118.777Z" fill="white"/>
<path d="M150.434 6.30883L45.7386 191.508C45.3617 192.175 45.8433 193 46.6091 193H151.305C151.857 193 152.305 192.552 152.305 192V6.80094C152.305 5.77303 150.94 5.414 150.434 6.30883Z" fill="white"/>
<path d="M232.921 116.787L171.061 178.671C170.431 179.301 169.354 178.855 169.354 177.964V6.79665C169.354 5.76903 170.718 5.40975 171.224 6.30404L233.084 115.588C233.306 115.979 233.239 116.47 232.921 116.787Z" fill="white"/>
<path d="M315.293 59.6271L183.677 191.293C183.047 191.923 183.493 193 184.384 193H316C316.552 193 317 192.552 317 192V60.3341C317 59.4431 315.923 58.9969 315.293 59.6271Z" fill="white"/>
<path d="M65.8342 118.777L6.70724 59.6271C6.07733 58.997 5 59.4431 5 60.3341V192C5 192.552 5.44772 193 6 193H23.1773C23.5343 193 23.8642 192.81 24.0429 192.501L65.9926 119.984C66.2193 119.592 66.1544 119.097 65.8342 118.777Z" stroke="white" stroke-width="10"/>
<path d="M150.434 6.30883L45.7386 191.508C45.3617 192.175 45.8433 193 46.6091 193H151.305C151.857 193 152.305 192.552 152.305 192V6.80094C152.305 5.77303 150.94 5.414 150.434 6.30883Z" stroke="white" stroke-width="10"/>
<path d="M232.921 116.787L171.061 178.671C170.431 179.301 169.354 178.855 169.354 177.964V6.79665C169.354 5.76903 170.718 5.40975 171.224 6.30404L233.084 115.588C233.306 115.979 233.239 116.47 232.921 116.787Z" stroke="white" stroke-width="10"/>
<path d="M315.293 59.6271L183.677 191.293C183.047 191.923 183.493 193 184.384 193H316C316.552 193 317 192.552 317 192V60.3341C317 59.4431 315.923 58.9969 315.293 59.6271Z" stroke="white" stroke-width="10"/>
</svg>
