<svg width="682" height="169" viewBox="0 0 682 169" fill="none" xmlns="http://www.w3.org/2000/svg">
<path d="M222 168.5H126L256 38.5003C278.191 17.6481 305.309 -0.147565 341 0.500291H682L619 63.5003C619 63.5003 373 64.0003 354 64.0003C335 64.0003 326.5 67.5003 315.5 78.5003C304.5 89.5003 222 168.5 222 168.5Z" fill="white"/>
<path d="M328 168.5H240L322 86.5003C334.5 74.0003 351.5 74.0003 367.5 74.0003H608L549.5 132.5H381C370.5 132.5 364 132.5 358 138.5L328 168.5Z" fill="white"/>
<path d="M168.5 0L0 168.5H106L274.5 0H168.5Z" fill="white"/>
<path d="M385.928 128V121.95C385.928 121.576 385.983 121.246 386.115 120.949C386.236 120.663 386.401 120.421 386.599 120.223C386.797 120.025 387.039 119.882 387.314 119.772C387.589 119.673 387.875 119.618 388.172 119.618C388.876 119.618 389.426 119.816 389.822 120.19C390.218 120.564 390.548 121.059 390.801 121.675L392.594 126.053C392.616 126.108 392.638 126.163 392.66 126.207C392.682 126.251 392.726 126.273 392.792 126.273C392.858 126.273 392.913 126.262 392.935 126.218C392.957 126.174 392.979 126.119 392.979 126.042V119.75H395.179V125.811C395.179 126.207 395.113 126.548 394.992 126.834C394.86 127.131 394.695 127.373 394.497 127.571C394.299 127.769 394.057 127.912 393.782 128C393.507 128.099 393.221 128.143 392.935 128.143C392.231 128.143 391.681 127.967 391.285 127.593C390.889 127.23 390.57 126.724 390.306 126.086L388.513 121.708C388.491 121.664 388.458 121.609 388.436 121.565C388.414 121.521 388.37 121.488 388.315 121.488C388.238 121.488 388.183 121.51 388.161 121.554C388.139 121.598 388.128 121.653 388.128 121.719V128H385.928Z" fill="#B7B7B7"/>
<path d="M405.065 124.447C405.065 124.997 404.977 125.503 404.812 125.954C404.647 126.405 404.405 126.79 404.075 127.109C403.745 127.428 403.327 127.67 402.821 127.846C402.315 128.022 401.721 128.11 401.061 128.11H400.335C399.664 128.11 399.081 128.022 398.575 127.846C398.069 127.67 397.651 127.428 397.321 127.109C396.991 126.79 396.738 126.405 396.573 125.954C396.408 125.503 396.331 124.997 396.331 124.447V123.303C396.331 122.753 396.408 122.258 396.573 121.807C396.738 121.356 396.991 120.971 397.321 120.652C397.651 120.333 398.069 120.08 398.575 119.904C399.081 119.728 399.664 119.64 400.335 119.64H401.061C401.721 119.64 402.315 119.728 402.821 119.904C403.327 120.08 403.745 120.333 404.075 120.652C404.405 120.971 404.647 121.356 404.812 121.807C404.977 122.258 405.065 122.753 405.065 123.303V124.447ZM398.641 124.535C398.641 125.195 398.762 125.657 399.004 125.921C399.246 126.196 399.675 126.328 400.269 126.328H401.127C401.721 126.328 402.139 126.196 402.381 125.921C402.623 125.657 402.755 125.195 402.755 124.535V123.193C402.755 122.544 402.623 122.082 402.381 121.818C402.139 121.554 401.721 121.411 401.127 121.411H400.269C399.675 121.411 399.246 121.554 399.004 121.818C398.762 122.082 398.641 122.544 398.641 123.193V124.535Z" fill="#B7B7B7"/>
<path d="M408.474 128V121.565H405.339V119.75H413.809V121.565H410.674V128H408.474Z" fill="#B7B7B7"/>
<path d="M424.177 128L423.528 126.273H419.667L419.007 128H416.785L419.524 121.345C419.733 120.828 419.997 120.41 420.305 120.091C420.613 119.783 421.053 119.618 421.603 119.618C422.175 119.618 422.615 119.783 422.945 120.091C423.275 120.399 423.539 120.817 423.748 121.323L426.465 128H424.177ZM421.416 121.741L420.327 124.568H422.879L421.812 121.741C421.79 121.697 421.757 121.653 421.735 121.609C421.713 121.565 421.669 121.543 421.614 121.543C421.559 121.543 421.515 121.565 421.493 121.598C421.46 121.642 421.438 121.686 421.416 121.741Z" fill="#B7B7B7"/>
<path d="M427.232 128V119.75H433.733V121.565H429.432V123.083H433.733V124.898H429.432V128H427.232Z" fill="#B7B7B7"/>
<path d="M435.106 128V119.75H441.607V121.565H437.306V123.083H441.607V124.898H437.306V128H435.106Z" fill="#B7B7B7"/>
<path d="M443.035 128V119.75H445.235V128H443.035Z" fill="#B7B7B7"/>
<path d="M446.718 128V119.75H448.918V126.185H453.109V128H446.718Z" fill="#B7B7B7"/>
<path d="M454.207 128V119.75H456.407V128H454.207Z" fill="#B7B7B7"/>
<path d="M464.622 128L463.973 126.273H460.112L459.452 128H457.23L459.969 121.345C460.178 120.828 460.442 120.41 460.75 120.091C461.058 119.783 461.498 119.618 462.048 119.618C462.62 119.618 463.06 119.783 463.39 120.091C463.72 120.399 463.984 120.817 464.193 121.323L466.91 128H464.622ZM461.861 121.741L460.772 124.568H463.324L462.257 121.741C462.235 121.697 462.202 121.653 462.18 121.609C462.158 121.565 462.114 121.543 462.059 121.543C462.004 121.543 461.96 121.565 461.938 121.598C461.905 121.642 461.883 121.686 461.861 121.741Z" fill="#B7B7B7"/>
<path d="M468.835 128V121.565H465.7V119.75H474.17V121.565H471.035V128H468.835Z" fill="#B7B7B7"/>
<path d="M475.163 128V119.75H482.049V121.565H477.308V122.995H482.049V124.755H477.308V126.185H482.049V128H475.163Z" fill="#B7B7B7"/>
<path d="M483.287 128V122.72H485.487V126.185H487.533C488.215 126.185 488.666 126.075 488.886 125.844C489.106 125.624 489.227 125.228 489.227 124.678V123.138C489.227 122.566 489.117 122.159 488.897 121.917C488.677 121.686 488.237 121.565 487.588 121.565H481.362V119.75H487.621C488.27 119.75 488.842 119.838 489.337 120.003C489.832 120.168 490.239 120.399 490.569 120.707C490.888 121.015 491.13 121.378 491.295 121.818C491.449 122.258 491.537 122.742 491.537 123.27V124.48C491.537 125.019 491.449 125.503 491.295 125.943C491.13 126.383 490.888 126.746 490.569 127.054C490.239 127.362 489.832 127.593 489.337 127.758C488.842 127.923 488.27 128 487.621 128H483.287Z" fill="#B7B7B7"/>
<path d="M496.987 119.75L497.933 126.031C497.933 126.108 497.955 126.174 497.999 126.218C498.032 126.273 498.087 126.295 498.164 126.295C498.23 126.295 498.274 126.273 498.307 126.229C498.34 126.185 498.362 126.119 498.373 126.053L499.077 121.884C499.187 121.202 499.429 120.663 499.792 120.245C500.155 119.827 500.683 119.618 501.387 119.618C502.091 119.618 502.597 119.827 502.916 120.245C503.235 120.663 503.455 121.213 503.576 121.873L504.28 126.042C504.291 126.13 504.313 126.185 504.357 126.229C504.39 126.273 504.434 126.295 504.5 126.295C504.588 126.295 504.654 126.273 504.687 126.218C504.72 126.174 504.742 126.108 504.753 126.02L505.677 119.75H507.877L506.733 126.13C506.612 126.779 506.381 127.274 506.04 127.604C505.699 127.945 505.215 128.11 504.588 128.11C503.884 128.11 503.334 127.923 502.949 127.549C502.553 127.175 502.311 126.669 502.212 126.031L501.497 121.697C501.486 121.631 501.464 121.587 501.442 121.543C501.409 121.51 501.365 121.488 501.31 121.488C501.244 121.488 501.2 121.51 501.178 121.543C501.145 121.587 501.123 121.631 501.123 121.697L500.386 126.053C500.276 126.691 500.045 127.197 499.693 127.56C499.341 127.934 498.835 128.11 498.175 128.11C497.471 128.11 496.932 127.912 496.58 127.516C496.228 127.12 495.997 126.603 495.887 125.987L494.787 119.75H496.987Z" fill="#B7B7B7"/>
<path d="M508.809 128V119.75H511.009V128H508.809Z" fill="#B7B7B7"/>
<path d="M515.187 128V121.565H512.052V119.75H520.522V121.565H517.387V128H515.187Z" fill="#B7B7B7"/>
<path d="M521.516 128V119.75H523.716V122.874H527.621V119.75H529.821V128H527.621V124.799H523.716V128H521.516Z" fill="#B7B7B7"/>
<path d="M533.891 128V119.75H540.392V121.565H536.091V123.083H540.392V124.898H536.091V128H533.891Z" fill="#B7B7B7"/>
<path d="M541.49 128V126.317H543.569V121.895C543.569 121.785 543.536 121.697 543.481 121.631C543.426 121.565 543.349 121.532 543.239 121.532H541.6V119.75H543.712C544.328 119.75 544.834 119.948 545.208 120.322C545.582 120.696 545.769 121.18 545.769 121.752V126.317H547.562V128H541.49Z" fill="#B7B7B7"/>
</svg>
