<svg width="1590" height="307" viewBox="0 0 1590 307" fill="none" xmlns="http://www.w3.org/2000/svg">
<path d="M1333.83 155.777L1274.71 96.6271C1274.08 95.997 1273 96.4431 1273 97.3341V229C1273 229.552 1273.45 230 1274 230H1291.18C1291.53 230 1291.86 229.81 1292.04 229.501L1333.99 156.984C1334.22 156.592 1334.15 156.097 1333.83 155.777Z" fill="white"/>
<path d="M1418.43 43.3088L1313.74 228.508C1313.36 229.175 1313.84 230 1314.61 230H1419.3C1419.86 230 1420.3 229.552 1420.3 229V43.8009C1420.3 42.773 1418.94 42.414 1418.43 43.3088Z" fill="white"/>
<path d="M1500.92 153.787L1439.06 215.671C1438.43 216.301 1437.35 215.855 1437.35 214.964V43.7966C1437.35 42.769 1438.72 42.4098 1439.22 43.304L1501.08 152.588C1501.31 152.979 1501.24 153.47 1500.92 153.787Z" fill="white"/>
<path d="M1583.29 96.6271L1451.68 228.293C1451.05 228.923 1451.49 230 1452.38 230H1584C1584.55 230 1585 229.552 1585 229V97.3341C1585 96.4431 1583.92 95.9969 1583.29 96.6271Z" fill="white"/>
<path d="M1333.83 155.777L1274.71 96.6271C1274.08 95.997 1273 96.4431 1273 97.3341V229C1273 229.552 1273.45 230 1274 230H1291.18C1291.53 230 1291.86 229.81 1292.04 229.501L1333.99 156.984C1334.22 156.592 1334.15 156.097 1333.83 155.777Z" stroke="white" stroke-width="10"/>
<path d="M1418.43 43.3088L1313.74 228.508C1313.36 229.175 1313.84 230 1314.61 230H1419.3C1419.86 230 1420.3 229.552 1420.3 229V43.8009C1420.3 42.773 1418.94 42.414 1418.43 43.3088Z" stroke="white" stroke-width="10"/>
<path d="M1500.92 153.787L1439.06 215.671C1438.43 216.301 1437.35 215.855 1437.35 214.964V43.7966C1437.35 42.769 1438.72 42.4098 1439.22 43.304L1501.08 152.588C1501.31 152.979 1501.24 153.47 1500.92 153.787Z" stroke="white" stroke-width="10"/>
<path d="M1583.29 96.6271L1451.68 228.293C1451.05 228.923 1451.49 230 1452.38 230H1584C1584.55 230 1585 229.552 1585 229V97.3341C1585 96.4431 1583.92 95.9969 1583.29 96.6271Z" stroke="white" stroke-width="10"/>
<path d="M10.496 50.8H52.992C67.4987 50.8 78.08 54.2133 84.736 61.04C91.392 67.696 94.72 78.0213 94.72 92.016V99.184C94.72 108.4 93.184 115.909 90.112 121.712C87.2107 127.515 82.688 131.696 76.544 134.256V134.768C90.5387 139.547 97.536 152.005 97.536 172.144V187.504C97.536 201.328 93.8667 211.909 86.528 219.248C79.36 226.416 68.7787 230 54.784 230H10.496V50.8ZM49.664 123.76C55.296 123.76 59.4773 122.309 62.208 119.408C65.1093 116.507 66.56 111.643 66.56 104.816V94.832C66.56 88.3467 65.3653 83.6533 62.976 80.752C60.7573 77.8507 57.1733 76.4 52.224 76.4H38.656V123.76H49.664ZM54.784 204.4C59.7333 204.4 63.4027 203.12 65.792 200.56C68.1813 197.829 69.376 193.221 69.376 186.736V171.12C69.376 162.928 67.9253 157.296 65.024 154.224C62.2933 150.981 57.6853 149.36 51.2 149.36H38.656V204.4H54.784ZM113.996 50.8H190.796V76.4H142.156V123.76H180.812V149.36H142.156V204.4H190.796V230H113.996V50.8ZM229.012 76.4H199.572V50.8H286.612V76.4H257.172V230H229.012V76.4ZM324.762 76.4H295.322V50.8H382.362V76.4H352.922V230H324.762V76.4ZM395.996 50.8H472.796V76.4H424.156V123.76H462.812V149.36H424.156V204.4H472.796V230H395.996V50.8ZM488.996 50.8H530.724C545.231 50.8 555.812 54.2133 562.468 61.04C569.124 67.696 572.452 78.0213 572.452 92.016V103.024C572.452 121.627 566.308 133.403 554.02 138.352V138.864C560.847 140.912 565.625 145.093 568.356 151.408C571.257 157.723 572.708 166.171 572.708 176.752V208.24C572.708 213.36 572.879 217.541 573.22 220.784C573.561 223.856 574.415 226.928 575.78 230H547.108C546.084 227.099 545.401 224.368 545.06 221.808C544.719 219.248 544.548 214.64 544.548 207.984V175.216C544.548 167.024 543.183 161.307 540.452 158.064C537.892 154.821 533.369 153.2 526.884 153.2H517.156V230H488.996V50.8ZM527.396 127.6C533.028 127.6 537.209 126.149 539.94 123.248C542.841 120.347 544.292 115.483 544.292 108.656V94.832C544.292 88.3467 543.097 83.6533 540.708 80.752C538.489 77.8507 534.905 76.4 529.956 76.4H517.156V127.6H527.396ZM592.246 50.8H666.742V76.4H620.406V126.32H656.758V151.92H620.406V230H592.246V50.8ZM693.756 50.8H731.9L761.084 230H732.924L727.804 194.416V194.928H695.804L690.684 230H664.572L693.756 50.8ZM724.476 170.608L711.932 82.032H711.42L699.132 170.608H724.476ZM774.746 50.8H810.074L837.466 158.064H837.978V50.8H863.066V230H834.138L800.346 99.184H799.834V230H774.746V50.8ZM906.012 76.4H876.572V50.8H963.612V76.4H934.172V230H906.012V76.4ZM987.256 50.8H1025.4L1054.58 230H1026.42L1021.3 194.416V194.928H989.304L984.184 230H958.072L987.256 50.8ZM1017.98 170.608L1005.43 82.032H1004.92L992.632 170.608H1017.98ZM1104.1 232.56C1090.45 232.56 1080.13 228.72 1073.13 221.04C1066.13 213.189 1062.63 202.011 1062.63 187.504V177.264H1089.26V189.552C1089.26 201.157 1094.12 206.96 1103.85 206.96C1108.63 206.96 1112.21 205.595 1114.6 202.864C1117.16 199.963 1118.44 195.355 1118.44 189.04C1118.44 181.531 1116.73 174.96 1113.32 169.328C1109.91 163.525 1103.59 156.613 1094.38 148.592C1082.77 138.352 1074.66 129.136 1070.06 120.944C1065.45 112.581 1063.14 103.195 1063.14 92.784C1063.14 78.6187 1066.73 67.696 1073.9 60.016C1081.06 52.1653 1091.47 48.24 1105.13 48.24C1118.61 48.24 1128.77 52.1653 1135.59 60.016C1142.59 67.696 1146.09 78.7893 1146.09 93.296V100.72H1119.46V91.504C1119.46 85.36 1118.27 80.9227 1115.88 78.192C1113.49 75.2907 1109.99 73.84 1105.38 73.84C1096 73.84 1091.3 79.5573 1091.3 90.992C1091.3 97.4773 1093.01 103.536 1096.42 109.168C1100.01 114.8 1106.41 121.627 1115.62 129.648C1127.4 139.888 1135.51 149.189 1139.94 157.552C1144.38 165.915 1146.6 175.728 1146.6 186.992C1146.6 201.669 1142.93 212.933 1135.59 220.784C1128.42 228.635 1117.93 232.56 1104.1 232.56ZM1187.1 153.712L1153.05 50.8H1183.01L1202.21 116.592H1202.72L1221.92 50.8H1249.31L1215.26 153.712V230H1187.1V153.712Z" fill="white"/>
</svg>
